# xmcd
#
# Track frame offsets:
#	150
#	13910
#	31001
#	45549
#	56147
#	76491
#	85191
#	95506
#	107252
#	117913
#	136469
#	142449
#	162406
#
# Disc length: 2360 seconds
#
# Revision: 0
# Processed by: cddbd v1.5.2PL0 Copyright (c) Steve Scherf et al.
# Submitted via: EasyCDDAExtractor 10.0.1.1
#
DISCID=ad09360d
DTITLE=Me Naiset - Toisiamme siunaten
DYEAR=2006
DGENRE=Gospel
TTITLE0=Toisiamme siunaten
TTITLE1=Tänään häneen uskon
TTITLE2=Polvistun hiljaa
TTITLE3=Edessäsi uudistun
TTITLE4=Itkemättömät itkut
TTITLE5=Minne voin mennä
TTITLE6=Siunaa koko maailmaa
TTITLE7=Vaiti kaikki palvokaamme
TTITLE8=Riihikirkko hymni
TTITLE9=Kahden maan kansalainen
TTITLE10=Kristus nousi kuolleista
TTITLE11=Kerubiveisu
TTITLE12=Käy herra meitä siunaamaan
EXTD=
EXTT0=
EXTT1=
EXTT2=
EXTT3=
EXTT4=
EXTT5=
EXTT6=
EXTT7=
EXTT8=
EXTT9=
EXTT10=
EXTT11=
EXTT12=
PLAYORDER=
